<?xml version="1.0" encoding="iso-8859-1"?>
<!-- Generator: Adobe Illustrator 19.0.0, SVG Export Plug-In . SVG Version: 6.00 Build 0)  -->
<svg xmlns="http://www.w3.org/2000/svg" xmlns:xlink="http://www.w3.org/1999/xlink" version="1.1" id="Capa_1" x="0px" y="0px" viewBox="0 0 512 512" style="enable-background:new 0 0 512 512;" xml:space="preserve" width="512px" height="512px">
<g>
	<g>
		<g>
			<path d="M469.333,64H42.667C19.146,64,0,83.135,0,106.667v298.667C0,428.865,19.146,448,42.667,448h426.667     C492.854,448,512,428.865,512,405.333V106.667C512,83.135,492.854,64,469.333,64z M490.667,405.333     c0,11.76-9.563,21.333-21.333,21.333H42.667c-11.771,0-21.333-9.573-21.333-21.333V106.667c0-11.76,9.563-21.333,21.333-21.333     h426.667c11.771,0,21.333,9.573,21.333,21.333V405.333z" fill="#FFDA44"/>
			<path d="M138.667,202.667V192c0-5.896-4.771-10.667-10.667-10.667h-10.667c-5.896,0-10.667,4.771-10.667,10.667     s4.771,10.667,10.667,10.667c0,5.885-4.792,10.667-10.667,10.667S96,208.552,96,202.667V160c0-5.885,4.792-10.667,10.667-10.667     s10.667,4.781,10.667,10.667c0,5.896,4.771,10.667,10.667,10.667s10.667-4.771,10.667-10.667c0-17.646-14.354-32-32-32     c-17.646,0-32,14.354-32,32v42.667c0,17.646,14.354,32,32,32C124.313,234.667,138.667,220.313,138.667,202.667z" fill="#FFDA44"/>
			<path d="M181.333,213.333h21.333V224c0,5.896,4.771,10.667,10.667,10.667c5.896,0,10.667-4.771,10.667-10.667v-64     c0-17.646-14.354-32-32-32s-32,14.354-32,32v64c0,5.896,4.771,10.667,10.667,10.667c5.896,0,10.667-4.771,10.667-10.667V213.333z      M181.333,160c0-5.885,4.792-10.667,10.667-10.667s10.667,4.781,10.667,10.667v32h-21.333V160z" fill="#FFDA44"/>
			<path d="M426.667,149.333c5.896,0,10.667-4.771,10.667-10.667c0-5.896-4.771-10.667-10.667-10.667H384     c-5.896,0-10.667,4.771-10.667,10.667V224c0,5.896,4.771,10.667,10.667,10.667h42.667c5.896,0,10.667-4.771,10.667-10.667     s-4.771-10.667-10.667-10.667h-32V192H416c5.896,0,10.667-4.771,10.667-10.667c0-5.896-4.771-10.667-10.667-10.667h-21.333     v-21.333H426.667z" fill="#FFDA44"/>
			<path d="M320,298.667c5.896,0,10.667-4.771,10.667-10.667s-4.771-10.667-10.667-10.667h-42.667     c-5.896,0-10.667,4.771-10.667,10.667v85.333c0,5.896,4.771,10.667,10.667,10.667H320c5.896,0,10.667-4.771,10.667-10.667     c0-5.896-4.771-10.667-10.667-10.667h-32v-21.333h21.333c5.896,0,10.667-4.771,10.667-10.667c0-5.896-4.771-10.667-10.667-10.667     H288v-21.333H320z" fill="#FFDA44"/>
			<path d="M352,160c0-17.646-14.354-32-32-32c-8.188,0-15.667,3.094-21.333,8.167C293,131.094,285.521,128,277.333,128     c-17.646,0-32,14.354-32,32v64c0,5.896,4.771,10.667,10.667,10.667s10.667-4.771,10.667-10.667v-64     c0-5.885,4.792-10.667,10.667-10.667S288,154.115,288,160v64c0,5.896,4.771,10.667,10.667,10.667     c5.896,0,10.667-4.771,10.667-10.667v-64c0-5.885,4.792-10.667,10.667-10.667s10.667,4.781,10.667,10.667v64     c0,5.896,4.771,10.667,10.667,10.667c5.896,0,10.667-4.771,10.667-10.667V160z" fill="#FFDA44"/>
			<path d="M128,277.333c-17.646,0-32,14.354-32,32V352c0,17.646,14.354,32,32,32s32-14.354,32-32v-42.667     C160,291.688,145.646,277.333,128,277.333z M138.667,352c0,5.885-4.792,10.667-10.667,10.667s-10.667-4.781-10.667-10.667     v-42.667c0-5.885,4.792-10.667,10.667-10.667s10.667,4.781,10.667,10.667V352z" fill="#FFDA44"/>
			<path d="M384,277.333h-21.333c-5.896,0-10.667,4.771-10.667,10.667v85.333c0,5.896,4.771,10.667,10.667,10.667     s10.667-4.771,10.667-10.667v-32H384c5.875,0,10.667,4.781,10.667,10.667v21.333c0,5.896,4.771,10.667,10.667,10.667     c5.896,0,10.667-4.771,10.667-10.667V352c0-8.188-3.083-15.667-8.167-21.333C412.917,325,416,317.521,416,309.333     C416,291.688,401.646,277.333,384,277.333z M384,320h-10.667v-21.333H384c5.875,0,10.667,4.781,10.667,10.667     C394.667,315.219,389.875,320,384,320z" fill="#FFDA44"/>
			<path d="M234.667,277.333c-5.896,0-10.667,4.771-10.667,10.667v50.104l-10.667,16l-10.667-16V288     c0-5.896-4.771-10.667-10.667-10.667s-10.667,4.771-10.667,10.667v53.333c0,2.104,0.625,4.167,1.792,5.917l21.333,32     c1.979,2.969,5.313,4.75,8.875,4.75s6.896-1.781,8.875-4.75l21.333-32c1.167-1.75,1.792-3.813,1.792-5.917V288     C245.333,282.104,240.563,277.333,234.667,277.333z" fill="#FFDA44"/>
		</g>
	</g>
</g>
<g>
</g>
<g>
</g>
<g>
</g>
<g>
</g>
<g>
</g>
<g>
</g>
<g>
</g>
<g>
</g>
<g>
</g>
<g>
</g>
<g>
</g>
<g>
</g>
<g>
</g>
<g>
</g>
<g>
</g>
</svg>
